<mxfile host="app.diagrams.net" modified="2021-03-31T07:16:18.272Z" agent="5.0 (Windows NT 10.0; Win64; x64) AppleWebKit/537.36 (KHTML, like Gecko) Chrome/89.0.4389.90 Safari/537.36" etag="agrGFgX0T-XRW7AJaaLi" version="14.4.3" type="github">
  <diagram id="pYlbQhkEn5CV2Vieloeu" name="Page-1">
    <mxGraphModel dx="1422" dy="762" grid="1" gridSize="10" guides="1" tooltips="1" connect="1" arrows="1" fold="1" page="1" pageScale="1" pageWidth="827" pageHeight="1169" math="0" shadow="0">
      <root>
        <mxCell id="0" />
        <mxCell id="1" parent="0" />
        <mxCell id="7DndTKOdpqZqmhhJSflZ-1" value="" style="rounded=0;whiteSpace=wrap;html=1;" vertex="1" parent="1">
          <mxGeometry x="130" y="70" width="480" height="390" as="geometry" />
        </mxCell>
        <mxCell id="rvWqUSQ_bBUgCcC68goN-3" value="" style="edgeStyle=orthogonalEdgeStyle;rounded=0;orthogonalLoop=1;jettySize=auto;html=1;" parent="1" source="rvWqUSQ_bBUgCcC68goN-1" target="rvWqUSQ_bBUgCcC68goN-2" edge="1">
          <mxGeometry relative="1" as="geometry" />
        </mxCell>
        <mxCell id="rvWqUSQ_bBUgCcC68goN-4" value="updateJob" style="edgeLabel;html=1;align=center;verticalAlign=middle;resizable=0;points=[];" parent="rvWqUSQ_bBUgCcC68goN-3" vertex="1" connectable="0">
          <mxGeometry x="-0.1684" relative="1" as="geometry">
            <mxPoint as="offset" />
          </mxGeometry>
        </mxCell>
        <mxCell id="rvWqUSQ_bBUgCcC68goN-1" value="系统初始化时" style="rounded=0;whiteSpace=wrap;html=1;" parent="1" vertex="1">
          <mxGeometry x="150" y="110" width="120" height="60" as="geometry" />
        </mxCell>
        <mxCell id="rvWqUSQ_bBUgCcC68goN-2" value="1、创建静态组&lt;br&gt;2、创建策略&lt;br&gt;3、把策略绑定到组" style="whiteSpace=wrap;html=1;rounded=0;align=left;" parent="1" vertex="1">
          <mxGeometry x="460" y="110" width="120" height="60" as="geometry" />
        </mxCell>
        <mxCell id="rvWqUSQ_bBUgCcC68goN-7" value="" style="edgeStyle=orthogonalEdgeStyle;rounded=0;orthogonalLoop=1;jettySize=auto;html=1;" parent="1" source="rvWqUSQ_bBUgCcC68goN-5" target="rvWqUSQ_bBUgCcC68goN-6" edge="1">
          <mxGeometry relative="1" as="geometry" />
        </mxCell>
        <mxCell id="rvWqUSQ_bBUgCcC68goN-8" value="add" style="edgeLabel;html=1;align=center;verticalAlign=middle;resizable=0;points=[];" parent="rvWqUSQ_bBUgCcC68goN-7" vertex="1" connectable="0">
          <mxGeometry x="-0.14" y="-2" relative="1" as="geometry">
            <mxPoint as="offset" />
          </mxGeometry>
        </mxCell>
        <mxCell id="rvWqUSQ_bBUgCcC68goN-5" value="创建设备时" style="rounded=0;whiteSpace=wrap;html=1;" parent="1" vertex="1">
          <mxGeometry x="150" y="250" width="120" height="60" as="geometry" />
        </mxCell>
        <mxCell id="rvWqUSQ_bBUgCcC68goN-6" value="把设备添加到组" style="whiteSpace=wrap;html=1;rounded=0;" parent="1" vertex="1">
          <mxGeometry x="460" y="250" width="120" height="60" as="geometry" />
        </mxCell>
        <mxCell id="rvWqUSQ_bBUgCcC68goN-9" value="策略权限：&lt;br&gt;1、连接到IoT&lt;br&gt;2、发布、订阅IoT保留主题&lt;br&gt;3、发布、订阅自己的主题" style="text;html=1;strokeColor=none;fillColor=none;align=left;verticalAlign=middle;whiteSpace=wrap;rounded=0;" parent="1" vertex="1">
          <mxGeometry x="150" y="370" width="430" height="70" as="geometry" />
        </mxCell>
      </root>
    </mxGraphModel>
  </diagram>
</mxfile>
